<svg width="35" height="35" viewBox="0 0 35 35" fill="none" xmlns="http://www.w3.org/2000/svg">
<mask id="mask0_3437_3600" style="mask-type:alpha" maskUnits="userSpaceOnUse" x="0" y="0" width="35" height="35">
<circle cx="17.3192" cy="17.571" r="17" fill="#E4E7EE"/>
</mask>
<g mask="url(#mask0_3437_3600)">
<circle cx="17.3192" cy="17.3549" r="17" fill="#74CCD8"/>
<path d="M13.0774 24.733C12.7534 24.733 12.5134 24.679 12.3574 24.571C12.2134 24.475 12.1174 24.343 12.0694 24.175C12.0334 24.007 12.0154 23.827 12.0154 23.635V13.195C12.0154 13.015 12.0394 12.847 12.0874 12.691C12.1354 12.535 12.2374 12.409 12.3934 12.313C12.5614 12.217 12.8074 12.169 13.1314 12.169C13.4914 12.169 13.7374 12.211 13.8694 12.295C14.0134 12.367 14.1454 12.475 14.2654 12.619L20.2774 21.025V13.195C20.2774 13.015 20.3014 12.847 20.3494 12.691C20.3974 12.535 20.4994 12.409 20.6554 12.313C20.8114 12.217 21.0514 12.169 21.3754 12.169C21.7114 12.169 21.9514 12.223 22.0954 12.331C22.2514 12.427 22.3474 12.559 22.3834 12.727C22.4314 12.895 22.4554 13.081 22.4554 13.285V23.653C22.4554 23.845 22.4254 24.025 22.3654 24.193C22.3174 24.349 22.2094 24.475 22.0414 24.571C21.8854 24.679 21.6394 24.733 21.3034 24.733C21.0394 24.733 20.8294 24.709 20.6734 24.661C20.5294 24.613 20.3974 24.511 20.2774 24.355L14.1754 15.967V23.653C14.1754 23.845 14.1514 24.025 14.1034 24.193C14.0674 24.349 13.9714 24.475 13.8154 24.571C13.6594 24.679 13.4134 24.733 13.0774 24.733Z" fill="white"/>
</g>
</svg>
