<svg width="29" height="27" viewBox="0 0 29 27" fill="none" xmlns="http://www.w3.org/2000/svg">
<path d="M28.9743 5.15032C28.7758 5.92211 28.5627 6.68655 28.3716 7.45833C27.5189 10.8542 26.6736 14.2574 25.821 17.6533C25.8063 17.7268 25.7769 17.7929 25.7548 17.8738C20.8742 17.8738 16.0009 17.8738 11.0762 17.8738C11.2967 18.7485 11.5025 19.5938 11.723 20.4758C11.8332 20.4758 11.9435 20.4758 12.0464 20.4758C15.6481 20.4758 19.2498 20.4758 22.8514 20.4758C24.3803 20.4758 25.5931 21.4461 25.9092 22.9014C26.2694 24.5553 25.1448 26.2165 23.4542 26.5178C21.8003 26.8118 20.1759 25.6505 19.926 24.004C19.8378 23.438 19.9186 22.8941 20.1171 22.3355C17.8752 22.3355 15.6554 22.3355 13.3989 22.3355C13.7884 23.4527 13.6782 24.5038 12.9285 25.4447C12.458 26.0327 11.8332 26.3929 11.0909 26.5252C9.59874 26.7898 8.14337 25.8857 7.66559 24.4303C7.26132 23.2028 7.70234 21.2182 9.83395 20.542C8.32712 14.5147 6.8203 8.48738 5.31348 2.44539C3.77725 2.44539 2.26308 2.44539 0.748901 2.44539C0.748901 1.82061 0.748901 1.19583 0.748901 0.571045C0.859157 0.578395 0.969412 0.593096 1.07967 0.593096C2.88786 0.593096 4.69605 0.600446 6.50424 0.585746C6.69534 0.585746 6.7762 0.644549 6.8203 0.828308C6.92321 1.28403 7.04081 1.73975 7.15107 2.18812C7.38628 3.12897 7.62149 4.06982 7.86405 5.02536C14.9057 5.02536 21.94 5.02536 28.9743 5.02536C28.9743 5.07682 28.9743 5.11357 28.9743 5.15032ZM8.36388 6.87766C8.36388 6.94381 8.34918 6.97321 8.35653 6.99526C8.63584 8.12722 8.91515 9.25182 9.20182 10.3764C9.21652 10.4426 9.35618 10.5234 9.43703 10.5234C10.0177 10.5381 10.591 10.5308 11.1717 10.5308C11.4363 10.5308 11.7009 10.5308 11.9803 10.5308C11.8332 9.33268 11.6936 8.16397 11.5392 7.00261C11.5319 6.95116 11.429 6.87766 11.3775 6.87766C10.3779 6.87766 9.37823 6.87766 8.36388 6.87766ZM18.4265 6.89236C18.4265 8.11252 18.4265 9.31062 18.4265 10.5234C19.338 10.5234 20.2347 10.5234 21.1462 10.5234C21.3005 9.31062 21.4475 8.11252 21.6019 6.89236C20.5287 6.89236 19.4923 6.89236 18.4265 6.89236ZM13.4209 6.89971C13.4062 6.93646 13.3989 6.95116 13.3989 6.96586C13.5385 8.10517 13.6782 9.24447 13.8252 10.3838C13.8325 10.4426 13.9649 10.5381 14.0457 10.5381C14.5896 10.5528 15.1262 10.5455 15.6701 10.5455C15.9642 10.5455 16.2508 10.5455 16.5522 10.5455C16.5522 9.31062 16.5522 8.11252 16.5522 6.89971C15.5011 6.89971 14.4573 6.89971 13.4209 6.89971ZM22.9984 10.5381C23.8952 10.5381 24.7331 10.5455 25.5784 10.5308C25.6372 10.5308 25.7328 10.3985 25.7548 10.3176C25.9018 9.759 26.0341 9.20037 26.1738 8.64174C26.3135 8.06841 26.4605 7.49509 26.6075 6.89971C25.5417 6.89971 24.5053 6.89971 23.4542 6.89971C23.3072 8.09781 23.1528 9.29592 22.9984 10.5381ZM12.6712 16.0289C12.5168 14.7866 12.3625 13.5885 12.2155 12.3904C11.3702 12.3904 10.5543 12.3904 9.70164 12.3904C9.99566 13.5738 10.2823 14.7352 10.5837 15.9039C10.5984 15.9627 10.6939 16.0289 10.7601 16.0289C11.3775 16.0362 12.0023 16.0289 12.6712 16.0289ZM18.4118 12.3904C18.4118 13.5738 18.4118 14.7278 18.4192 15.8818C18.4192 15.9333 18.5294 16.0215 18.5882 16.0215C19.1542 16.0289 19.7275 16.0289 20.2935 16.0215C20.3523 16.0215 20.4626 15.9333 20.4699 15.8745C20.6243 14.7205 20.7639 13.5665 20.9109 12.3904C20.0804 12.3904 19.2645 12.3904 18.4118 12.3904ZM14.0751 12.3831C14.2295 13.6179 14.3838 14.816 14.5308 16.0068C15.2291 16.0068 15.898 16.0068 16.5522 16.0068C16.5522 14.7866 16.5522 13.5885 16.5522 12.3831C15.7289 12.3831 14.9204 12.3831 14.0751 12.3831ZM22.7706 12.3831C22.6162 13.6032 22.4692 14.8013 22.3149 16.0289C22.9323 16.0289 23.5203 16.0215 24.101 16.0362C24.2921 16.0436 24.3509 15.9627 24.3877 15.7936C24.6229 14.816 24.8728 13.8384 25.1154 12.8608C25.1521 12.7065 25.1889 12.5521 25.2256 12.3831C24.395 12.3831 23.6012 12.3831 22.7706 12.3831ZM11.7818 23.5262C11.7818 22.8573 11.2452 22.3208 10.5763 22.3208C9.90745 22.3208 9.37088 22.872 9.37823 23.5336C9.38558 24.1878 9.9148 24.717 10.569 24.7243C11.2379 24.7243 11.7744 24.1951 11.7818 23.5262ZM24.1304 23.5336C24.1304 22.8647 23.6012 22.3208 22.9323 22.3208C22.2634 22.3208 21.7268 22.8573 21.7268 23.5262C21.7268 24.1878 22.2561 24.717 22.9102 24.7243C23.5865 24.7243 24.1231 24.2025 24.1304 23.5336Z" fill="#B7B8C5"/>
</svg>
