<svg width="25" height="21" viewBox="0 0 25 21" fill="none" xmlns="http://www.w3.org/2000/svg">
<path d="M12.5551 19.4086C12.5492 19.4121 12.5433 19.4155 12.5374 19.4189C12.5309 19.4151 12.5244 19.4113 12.5178 19.4074C12.1931 19.2156 11.7267 18.9329 11.1659 18.5728C10.0424 17.8512 8.54971 16.8249 7.06197 15.6009C5.56928 14.373 4.11139 12.9703 3.03427 11.5012C1.94893 10.0208 1.31921 8.56709 1.31921 7.21615C1.31921 4.09858 3.8465 1.57125 6.96412 1.57125V1.57128L6.97191 1.57122C8.87696 1.55636 10.658 2.51454 11.6954 4.11246L12.5292 5.39688L13.3699 4.11693C14.416 2.52436 16.195 1.56704 18.1004 1.57124C21.213 1.58705 23.7325 4.10613 23.7489 7.21863C23.7482 8.59615 23.116 10.0621 22.0331 11.5435C20.9567 13.016 19.4999 14.4148 18.0081 15.6361C16.5211 16.8534 15.0292 17.8703 13.9063 18.584C13.3458 18.9402 12.8796 19.2193 12.5551 19.4086Z" stroke="#B7B8C5" stroke-width="2"/>
</svg>
