<svg width="17" height="17" viewBox="0 0 17 17" fill="none" xmlns="http://www.w3.org/2000/svg">
<path d="M11.9323 10.634H11.205L10.9535 10.3824C11.85 9.34407 12.3897 7.99472 12.3897 6.51731C12.3897 3.23314 9.7276 0.571045 6.44346 0.571045C3.15933 0.571045 0.497192 3.23314 0.497192 6.51731C0.497192 9.80149 3.15929 12.4636 6.44346 12.4636C7.92086 12.4636 9.27022 11.9238 10.3085 11.0319L10.5601 11.2835V12.0062L15.1341 16.571L16.4972 15.208L11.9323 10.634ZM6.44346 10.634C4.17018 10.634 2.32682 8.7906 2.32682 6.51731C2.32682 4.24403 4.17018 2.40068 6.44346 2.40068C8.71675 2.40068 10.5601 4.24403 10.5601 6.51731C10.5601 8.7906 8.71675 10.634 6.44346 10.634Z" fill="#090F24"/>
</svg>
