<svg width="26" height="26" viewBox="0 0 26 26" fill="none" xmlns="http://www.w3.org/2000/svg">
<path d="M7.22884 0.632812C7.55436 0.632812 7.87988 0.632812 8.2054 0.632812C8.25749 0.645833 8.31608 0.671875 8.36816 0.671875C9.56608 0.795573 10.6273 1.24479 11.5648 1.99349C11.7601 2.14974 11.9424 2.33203 12.1312 2.5013C11.7015 2.6901 11.3044 2.85286 10.9202 3.04818C10.7445 3.13932 10.6338 3.1263 10.471 3.00911C8.29004 1.42057 5.17806 1.99349 3.8304 4.23307C3.264 5.17708 3.08171 6.21224 3.0752 7.29297C3.06868 8.4388 3.0752 9.58464 3.0752 10.737C3.0752 10.8086 3.08171 10.8802 3.08822 10.9648C3.17285 10.9648 3.24447 10.9648 3.31608 10.9648C5.13249 10.9258 6.90332 10.6133 8.6416 10.0859C11.1025 9.34375 13.5765 9.32422 16.057 9.94922C17.6325 10.3464 19.1885 10.8151 20.8291 10.9128C21.2523 10.9388 21.682 10.9583 22.1247 10.9779C22.1247 10.6914 22.1117 10.4505 22.1247 10.2031C22.1442 9.84505 22.4242 9.55859 22.7757 9.51953C23.1273 9.48047 23.4528 9.69531 23.5505 10.0469C23.583 10.1641 23.583 10.2878 23.583 10.4049C23.583 14.0313 23.583 17.6641 23.583 21.2904C23.583 21.3815 23.583 21.4727 23.583 21.5964C23.7327 21.4922 23.8369 21.4141 23.9476 21.349C24.3577 21.1146 24.7549 21.2318 24.9762 21.6484C24.9958 21.6875 25.0283 21.7266 25.0479 21.7656C25.0479 21.8958 25.0479 22.026 25.0479 22.1563C24.9111 22.319 24.7939 22.5143 24.6312 22.6445C23.9671 23.1914 23.2119 23.582 22.4176 23.9141C20.0934 24.8841 17.6585 25.3724 15.152 25.5352C14.7419 25.5612 14.3252 25.5938 13.915 25.6263C13.0687 25.6263 12.2223 25.6263 11.376 25.6263C11.2588 25.6133 11.1351 25.5872 11.0179 25.5872C8.96061 25.5091 6.92936 25.2487 4.93717 24.6953C3.3877 24.2656 1.91634 23.6536 0.594727 22.7227C0.386393 22.5729 0.230143 22.3516 0.0478516 22.1628C0.0478516 22.0326 0.0478516 21.9023 0.0478516 21.7721C0.191081 21.4857 0.386393 21.2122 0.731445 21.2513C1.03092 21.2839 1.31087 21.4466 1.61035 21.5508C1.61035 21.4727 1.61035 21.375 1.61035 21.2773C1.61035 16.6615 1.60384 12.0391 1.61686 7.42318C1.61686 6.84375 1.65592 6.2513 1.7666 5.67839C2.23535 3.23698 3.62858 1.59635 6.03743 0.880208C6.42806 0.769531 6.83171 0.717448 7.22884 0.632812ZM3.0752 21.2448C3.0752 21.6094 3.08171 21.9479 3.06868 22.2865C3.06217 22.4232 3.11426 22.4948 3.23796 22.5404C3.72624 22.7227 4.2015 22.931 4.69629 23.0872C6.50618 23.6732 8.37467 23.9596 10.2757 24.0833C13.0947 24.2656 15.9007 24.1549 18.6742 23.5755C19.7874 23.3411 20.8747 23.0156 21.9229 22.5469C22.001 22.5143 22.1051 22.4297 22.1117 22.3646C22.1312 21.9935 22.1182 21.6224 22.1182 21.2383C15.764 21.2448 9.43587 21.2448 3.0752 21.2448ZM8.93457 16.1602C8.93457 16.6419 8.93457 17.1172 8.93457 17.599C8.93457 18.0677 9.24056 18.3997 9.66374 18.4063C10.0869 18.4063 10.3994 18.0742 10.3994 17.6055C10.3994 16.6419 10.3994 15.6719 10.3994 14.7083C10.3994 14.2396 10.0869 13.9141 9.65723 13.9206C9.24056 13.9271 8.94108 14.2526 8.93457 14.7083C8.93457 15.1836 8.93457 15.6719 8.93457 16.1602ZM6.00488 16.1602C6.00488 16.6419 6.00488 17.1172 6.00488 17.599C6.00488 18.0677 6.31087 18.3997 6.73405 18.4063C7.15723 18.4063 7.46973 18.0742 7.46973 17.6055C7.46973 16.6419 7.46973 15.6719 7.46973 14.7083C7.46973 14.2396 7.15723 13.9141 6.72754 13.9206C6.31087 13.9271 6.01139 14.2526 6.00488 14.7083C6.00488 15.1836 6.00488 15.6719 6.00488 16.1602ZM11.8643 16.1406C11.8643 16.6354 11.8643 17.1302 11.8643 17.625C11.8708 18.0742 12.1833 18.4063 12.5999 18.3997C13.0166 18.3997 13.3291 18.0677 13.3291 17.6185C13.3291 16.6419 13.3291 15.6719 13.3291 14.6953C13.3291 14.2396 13.0296 13.9141 12.6064 13.9076C12.1768 13.901 11.8643 14.2266 11.8643 14.6953C11.8643 15.1836 11.8643 15.6589 11.8643 16.1406ZM14.7939 16.1602C14.7939 16.6419 14.7939 17.1172 14.7939 17.599C14.7939 18.0677 15.0999 18.3997 15.5231 18.4063C15.9463 18.4063 16.2588 18.0742 16.2588 17.6055C16.2588 16.6419 16.2588 15.6719 16.2588 14.7083C16.2588 14.2396 15.9463 13.9141 15.5166 13.9206C15.0999 13.9271 14.8005 14.2526 14.7939 14.7083C14.7939 15.1836 14.7939 15.6719 14.7939 16.1602ZM17.7236 16.1602C17.7236 16.6419 17.7236 17.1172 17.7236 17.599C17.7236 18.0677 18.0296 18.3997 18.4528 18.4063C18.876 18.4063 19.1885 18.0742 19.1885 17.6055C19.1885 16.6419 19.1885 15.6719 19.1885 14.7083C19.1885 14.2396 18.876 13.9141 18.4463 13.9206C18.0296 13.9271 17.7301 14.2526 17.7236 14.7083C17.7236 15.1836 17.7236 15.6719 17.7236 16.1602Z" fill="#B7B8C5"/>
<path d="M11.2067 6.65502C10.9853 6.88288 10.7705 7.10424 10.5491 7.32559C10.2497 7.62507 9.87207 7.6446 9.61165 7.37767C9.35123 7.11726 9.37076 6.73965 9.67024 6.44017C9.90462 6.2058 10.139 5.97142 10.3734 5.73054C10.3799 5.72403 10.3864 5.7045 10.4059 5.65892C10.152 5.41153 9.87858 5.15762 9.61816 4.89069C9.27311 4.53262 9.42285 3.97924 9.8916 3.84903C10.1325 3.78392 10.3408 3.85554 10.5166 4.03132C10.7445 4.25918 10.9723 4.49356 11.2132 4.73444C11.8252 4.27872 12.5153 4.03783 13.238 3.88809C14.2275 3.67976 15.0869 4.05085 15.4775 4.88418C15.79 5.54825 15.738 6.19929 15.3083 6.79174C14.8721 7.39069 14.2666 7.6446 13.5309 7.54694C12.6911 7.42976 11.9163 7.16934 11.2067 6.65502Z" fill="#B7B8C5"/>
</svg>
