<svg width="26" height="33" viewBox="0 0 26 33" fill="none" xmlns="http://www.w3.org/2000/svg">
<path d="M20.1565 18.1061C21.7694 19.8415 23.3619 21.5565 25.0156 23.343C21.7694 25.5582 17.3798 26.14 13.5721 26.4361C13.5721 28.2838 13.5721 30.1315 13.5721 32.0098C12.1838 32.0098 12.2859 32.0098 10.918 32.0098C10.918 30.1621 10.918 28.3246 10.918 26.4361C7.49824 26.1911 3.45577 25.6602 0.444336 23.9146C7.4574 23.5676 14.1438 22.0976 20.1565 18.1061ZM19.3704 22.3528C19.3806 21.7913 18.9111 21.3115 18.3496 21.3217C17.8086 21.3217 17.3492 21.7811 17.339 22.3221C17.3288 22.8836 17.7984 23.3634 18.3598 23.3532C18.9009 23.3532 19.3602 22.8938 19.3704 22.3528Z" fill="#B7B8C5"/>
<path d="M0.015625 22.7305C1.85311 20.7501 3.69059 18.7595 5.50766 16.8097C4.49705 16.2993 3.52726 15.8093 2.49623 15.2887C2.66977 15.0845 2.74123 14.9825 2.8331 14.8906C3.87434 13.7881 4.91558 12.6958 5.94662 11.5933C6.16099 11.3585 6.31412 11.2973 6.63057 11.4606C10.0401 13.2675 13.6436 14.5537 17.4411 15.2377C18.4721 15.4214 19.5338 15.4929 20.575 15.6256C20.718 15.646 20.8711 15.6664 21.0548 15.7991C20.3607 16.1156 19.6665 16.4218 18.9213 16.7587C19.0642 16.9424 19.2071 17.116 19.4113 17.361C13.5211 21.1687 6.97765 22.608 0.015625 22.7305ZM8.63139 17.2385C8.09035 17.2487 7.64119 17.7081 7.64119 18.2491C7.64119 18.8105 8.12097 19.2801 8.68243 19.2699C9.22347 19.2597 9.67263 18.8003 9.67263 18.2593C9.67263 17.6876 9.19284 17.2283 8.63139 17.2385Z" fill="#B7B8C5"/>
<path d="M6.96753 10.501C7.5494 9.8375 8.08023 9.225 8.63147 8.58188C8.05981 8.37772 7.5494 8.20418 7.02878 8.02043C10.1219 7.30585 13.0823 6.3769 15.6241 4.34546C16.5327 5.39691 17.4208 6.43815 18.4008 7.58147C17.5229 7.93876 16.7266 8.27564 15.8283 8.64313C17.6454 10.6235 19.4624 12.5937 21.3407 14.6558C16.1856 14.3598 11.5 12.8183 6.96753 10.501ZM13.7458 9.58229C13.2048 9.5925 12.7556 10.0519 12.7454 10.5929C12.7454 11.1544 13.215 11.6239 13.7764 11.6137C14.3175 11.6035 14.7666 11.1442 14.7768 10.6031C14.7768 10.0417 14.3073 9.57208 13.7458 9.58229Z" fill="#B7B8C5"/>
<path d="M12.2246 0.384644C13.1536 1.46672 14.0315 2.48754 14.9502 3.56962C12.5105 5.49898 9.71341 6.36668 6.61011 6.94855C8.52926 4.71294 10.3463 2.57942 12.2246 0.384644Z" fill="#B7B8C5"/>
</svg>
