<svg width="26" height="26" viewBox="0 0 26 26" fill="none" xmlns="http://www.w3.org/2000/svg">
<path d="M12.3752 4.94503C13.4949 4.93178 14.4092 4.79928 15.2241 4.26262C16.1781 3.63321 16.6022 2.68579 16.7678 1.59923C16.8076 1.34084 16.8009 1.0692 16.8076 0.80419C16.8142 0.413294 17.0792 0.207909 17.4502 0.33379C18.0597 0.545801 18.6693 0.764438 19.2722 0.983075C19.5041 1.0692 19.6962 1.55285 19.6101 1.79799C19.1728 3.02368 18.9012 4.27587 18.9144 5.58769C18.9277 6.82663 19.2192 7.9927 19.8685 9.05938C19.948 9.19188 19.948 9.38402 19.9678 9.54965C20.0142 9.87429 20.0473 10.2056 20.1004 10.5302C20.4117 12.5178 20.4515 14.512 20.3124 16.5195C20.2726 17.0495 20.4316 17.5995 20.5244 18.1361C20.7099 19.1962 20.9153 20.2496 21.1074 21.3096C21.167 21.6475 21.061 21.8264 20.7298 21.9192C18.9608 22.4293 17.1852 22.9329 15.4162 23.4364C15.0717 23.5358 14.8796 23.4231 14.7537 23.0654C14.3164 21.8065 13.8791 20.5477 13.4485 19.2889C13.3624 19.0372 13.2299 18.8251 12.9914 18.6926C12.6667 18.5138 12.3553 18.5601 12.0771 18.8053C11.8187 19.0372 11.6398 19.3022 11.5271 19.6401C11.1561 20.773 10.752 21.8927 10.3677 23.019C10.222 23.4496 10.0431 23.5424 9.61905 23.4165C7.89646 22.9262 6.17387 22.4293 4.44465 21.9391C4.02725 21.8198 3.92125 21.6674 4.00075 21.2301C4.25252 19.8454 4.5109 18.4674 4.76267 17.0827C4.80242 16.8508 4.80905 16.6056 4.78917 16.3671C4.59703 14.1874 4.71629 12.0209 5.10719 9.86104C5.11381 9.81467 5.14031 9.75504 5.12706 9.71529C5.00781 9.30451 5.25294 9.00637 5.4252 8.68173C6.04136 7.51567 6.24675 6.26348 6.16062 4.95828C6.09436 3.85848 5.8426 2.80505 5.47158 1.76487C5.37883 1.5131 5.60409 1.0427 5.86248 0.956573C6.43888 0.751187 7.01529 0.539176 7.59169 0.33379C8.02234 0.181407 8.29398 0.380168 8.28073 0.837317C8.26085 1.55285 8.39998 2.23527 8.70475 2.88455C9.26128 4.07711 10.2617 4.64027 11.5073 4.83903C11.8452 4.91853 12.1963 4.93178 12.3752 4.94503ZM16.5955 11.1397C16.6684 11.1 16.7413 11.0669 16.8142 11.0271C17.6225 10.5567 18.0332 9.84117 17.9869 8.91362C17.9405 7.93307 17.2846 7.1314 16.3769 6.86639C15.4427 6.59475 14.4887 6.91939 13.8924 7.72106C13.8129 7.82706 13.7466 7.86681 13.6075 7.82706C12.8986 7.6283 12.1831 7.6283 11.4741 7.82706C11.3284 7.86681 11.2688 7.82044 11.1959 7.71443C10.6195 6.93264 9.69193 6.60137 8.78425 6.84651C7.85008 7.09827 7.22067 7.84031 7.10142 8.83411C6.99541 9.70203 7.49231 10.5965 8.32048 11.047C8.38673 11.0801 8.44636 11.1199 8.49936 11.153C8.2476 13.1207 9.22153 14.565 10.381 15.2541C11.8253 16.1154 13.3027 16.1352 14.7206 15.2408C16.198 14.3 16.7678 12.8955 16.5955 11.1397Z" fill="#B7B8C5"/>
<path d="M22.8763 9.30452C22.7835 9.27801 22.6378 9.23826 22.4854 9.19851C21.9355 9.05938 21.379 8.92687 20.8357 8.77449C20.7628 8.75461 20.6965 8.66848 20.6502 8.5956C20.0141 7.58855 19.7889 6.47549 19.822 5.3028C19.8485 4.309 20.0539 3.34833 20.3653 2.41415C20.5243 1.93713 20.8224 1.84437 21.2332 2.14914C22.4125 3.03031 23.5918 3.91811 24.7645 4.79928C25.0693 5.02454 25.1156 5.1968 24.9633 5.52144C24.4465 6.66763 23.9231 7.80719 23.4063 8.95337C23.3069 9.15213 23.1877 9.30452 22.8763 9.30452Z" fill="#B7B8C5"/>
<path d="M5.28604 5.72683C5.29929 6.42912 5.08728 7.54218 4.47113 8.55585C4.385 8.70161 4.27899 8.75461 4.10673 8.78774C3.58333 8.90037 3.06655 9.05938 2.54977 9.20514C2.46364 9.23164 2.37751 9.25814 2.28476 9.27802C2.01312 9.33764 1.83424 9.25151 1.71498 8.99975C1.17833 7.82706 0.641673 6.64775 0.111645 5.46844C-0.00761157 5.20343 0.0387659 5.02454 0.264028 4.85228C1.48972 3.92473 2.72203 2.99719 3.95435 2.08289C4.25911 1.85763 4.57713 1.96363 4.70301 2.32803C5.02765 3.27545 5.23967 4.24938 5.28604 5.72683Z" fill="#B7B8C5"/>
<path d="M12.468 4.05722C12.1368 4.01747 11.7326 3.99759 11.3417 3.90484C10.116 3.61995 9.43363 2.90441 9.22162 1.44683C9.18849 1.23482 9.19512 1.01619 9.20837 0.804176C9.22824 0.419906 9.47338 0.260897 9.85102 0.353652C10.3943 0.486159 10.9376 0.631917 11.4875 0.744548C12.7066 0.996311 13.8859 0.751173 15.0519 0.41328C15.1381 0.386779 15.2242 0.360277 15.3169 0.340401C15.6151 0.274148 15.8602 0.433156 15.8801 0.731297C15.9728 2.169 15.3964 3.6862 13.4552 3.96447C13.1571 4.01084 12.8523 4.0241 12.468 4.05722Z" fill="#B7B8C5"/>
<path d="M21.4917 23.4364C21.4917 23.6815 21.3725 23.8339 21.0743 23.9134C19.6896 24.291 18.2983 24.6621 16.9136 25.0397C16.6287 25.1192 16.3438 25.1987 16.0523 25.2716C15.7012 25.3643 15.4693 25.2385 15.3832 24.9138C15.297 24.6024 15.4295 24.3904 15.7741 24.291C17.4304 23.814 19.0934 23.337 20.7497 22.8666C21.2068 22.7341 21.4851 22.9527 21.4917 23.4364Z" fill="#B7B8C5"/>
<path d="M3.60327 23.5026C3.6099 22.9461 3.88816 22.7341 4.34531 22.8666C6.00165 23.3436 7.66461 23.814 9.32095 24.291C9.67209 24.3904 9.8046 24.6289 9.69859 24.947C9.61246 25.212 9.3872 25.3445 9.11556 25.2716C7.39297 24.8144 5.67038 24.3507 3.94779 23.8869C3.72253 23.8339 3.60327 23.6683 3.60327 23.5026Z" fill="#B7B8C5"/>
<path d="M15.7275 11.7559C15.7342 13.505 14.3097 14.9361 12.5606 14.9493C10.8182 14.9626 9.37384 13.5249 9.36721 11.789C9.36059 10.0201 10.7784 8.59561 12.5474 8.59561C14.2965 8.58236 15.7209 10.0002 15.7275 11.7559ZM12.5739 11.312C11.8186 11.2988 11.2091 11.8818 11.1892 12.6371C11.1693 13.3924 11.7523 14.0085 12.5076 14.0284C13.2762 14.0483 13.8923 13.4586 13.9056 12.6901C13.9122 11.9348 13.3292 11.3253 12.5739 11.312ZM11.1759 10.8482C11.4277 10.8549 11.6397 10.6495 11.6397 10.3977C11.6397 10.1526 11.4211 9.94056 11.1826 9.94056C10.944 9.94056 10.7453 10.1393 10.7387 10.3845C10.7254 10.6362 10.9175 10.8416 11.1759 10.8482ZM13.9056 9.94056C13.6604 9.94056 13.4484 10.1592 13.4551 10.4043C13.4617 10.6495 13.6671 10.8482 13.9255 10.8482C14.1706 10.8416 14.3627 10.6495 14.3627 10.4043C14.3627 10.1592 14.1507 9.94056 13.9056 9.94056Z" fill="#B7B8C5"/>
<path d="M8.75113 10.2387C8.1946 9.9339 7.93622 9.42374 8.02234 8.81421C8.09522 8.29081 8.5325 7.82041 9.0559 7.70778C9.6058 7.58852 10.1425 7.79391 10.4538 8.25768C9.67868 8.72808 9.1089 9.38399 8.75113 10.2387Z" fill="#B7B8C5"/>
<path d="M14.6277 8.24444C15.012 7.75416 15.5619 7.56865 16.1051 7.72766C16.6418 7.88667 17.0327 8.35044 17.0791 8.89372C17.1254 9.47675 16.8604 9.96703 16.3437 10.232C15.9793 9.39725 15.4227 8.73471 14.6277 8.24444Z" fill="#B7B8C5"/>
<path d="M12.5474 13.1207C12.2957 13.1207 12.0969 12.9219 12.0969 12.6635C12.0969 12.4118 12.3023 12.213 12.5607 12.2196C12.8058 12.2263 12.998 12.4184 12.998 12.6635C12.998 12.9153 12.7992 13.1207 12.5474 13.1207Z" fill="#B7B8C5"/>
</svg>
